<mxfile host="app.diagrams.net" modified="2023-10-15T18:11:27.195Z" agent="Mozilla/5.0 (Windows NT 10.0; Win64; x64) AppleWebKit/537.36 (KHTML, like Gecko) Chrome/106.0.0.0 Safari/537.36" etag="O0GsBJivW386HWjbVm1E" version="22.0.4" type="device">
  <diagram name="Page-1" id="msUtNX0Dq1Pr3UJCemL_">
    <mxGraphModel dx="1434" dy="729" grid="1" gridSize="10" guides="1" tooltips="1" connect="1" arrows="1" fold="1" page="1" pageScale="1" pageWidth="850" pageHeight="1100" math="0" shadow="0">
      <root>
        <mxCell id="0" />
        <mxCell id="1" parent="0" />
        <mxCell id="WabbFey5wYb1l7bOqxb2-1" value="&lt;font style=&quot;font-size: 16px;&quot;&gt;Consumer &lt;br&gt;.net application&lt;/font&gt;" style="icon;html=1;image=img/clipart/Gear_128x128.png" vertex="1" parent="1">
          <mxGeometry x="40" y="300" width="60" height="60" as="geometry" />
        </mxCell>
        <mxCell id="WabbFey5wYb1l7bOqxb2-3" value="Custom config provider added as .nupkg" style="label;whiteSpace=wrap;html=1;image=img/clipart/Gear_128x128.png" vertex="1" parent="1">
          <mxGeometry x="100" y="300" width="140" height="60" as="geometry" />
        </mxCell>
        <mxCell id="WabbFey5wYb1l7bOqxb2-7" value="" style="edgeStyle=elbowEdgeStyle;elbow=horizontal;endArrow=classic;html=1;curved=0;rounded=0;endSize=8;startSize=8;exitX=1;exitY=0.5;exitDx=0;exitDy=0;" edge="1" parent="1" source="WabbFey5wYb1l7bOqxb2-3">
          <mxGeometry width="50" height="50" relative="1" as="geometry">
            <mxPoint x="340" y="330" as="sourcePoint" />
            <mxPoint x="410" y="330" as="targetPoint" />
          </mxGeometry>
        </mxCell>
        <mxCell id="WabbFey5wYb1l7bOqxb2-12" style="edgeStyle=orthogonalEdgeStyle;rounded=0;orthogonalLoop=1;jettySize=auto;html=1;exitX=0.5;exitY=1;exitDx=0;exitDy=0;entryX=0.5;entryY=0;entryDx=0;entryDy=0;" edge="1" parent="1" source="WabbFey5wYb1l7bOqxb2-8" target="WabbFey5wYb1l7bOqxb2-11">
          <mxGeometry relative="1" as="geometry" />
        </mxCell>
        <mxCell id="WabbFey5wYb1l7bOqxb2-8" value="Config Reader rest client" style="label;whiteSpace=wrap;html=1;align=center;verticalAlign=bottom;spacingLeft=0;spacingBottom=4;imageAlign=center;imageVerticalAlign=top;image=img/clipart/Gear_128x128.png" vertex="1" parent="1">
          <mxGeometry x="410" y="290" width="120" height="95" as="geometry" />
        </mxCell>
        <mxCell id="WabbFey5wYb1l7bOqxb2-9" value="&lt;font style=&quot;font-size: 16px;&quot;&gt;Refresh config in&lt;br&gt;&amp;nbsp;every 12 hours&lt;/font&gt;" style="text;html=1;align=center;verticalAlign=middle;resizable=0;points=[];autosize=1;strokeColor=none;fillColor=none;" vertex="1" parent="1">
          <mxGeometry x="250" y="340" width="140" height="50" as="geometry" />
        </mxCell>
        <mxCell id="WabbFey5wYb1l7bOqxb2-14" style="edgeStyle=orthogonalEdgeStyle;rounded=0;orthogonalLoop=1;jettySize=auto;html=1;exitX=0.5;exitY=1;exitDx=0;exitDy=0;entryX=0;entryY=0.5;entryDx=0;entryDy=0;entryPerimeter=0;" edge="1" parent="1" source="WabbFey5wYb1l7bOqxb2-11" target="WabbFey5wYb1l7bOqxb2-16">
          <mxGeometry relative="1" as="geometry">
            <mxPoint x="290" y="510" as="targetPoint" />
          </mxGeometry>
        </mxCell>
        <mxCell id="WabbFey5wYb1l7bOqxb2-11" value="" style="rhombus;whiteSpace=wrap;html=1;" vertex="1" parent="1">
          <mxGeometry x="430" y="470" width="80" height="80" as="geometry" />
        </mxCell>
        <mxCell id="WabbFey5wYb1l7bOqxb2-13" value="&lt;font style=&quot;font-size: 16px;&quot;&gt;check&amp;nbsp; config in&amp;nbsp; redis store&lt;/font&gt;" style="text;html=1;align=center;verticalAlign=middle;resizable=0;points=[];autosize=1;strokeColor=none;fillColor=none;" vertex="1" parent="1">
          <mxGeometry x="360" y="410" width="220" height="30" as="geometry" />
        </mxCell>
        <mxCell id="WabbFey5wYb1l7bOqxb2-15" value="&lt;font style=&quot;font-size: 14px;&quot;&gt;&lt;b&gt;yes&lt;/b&gt;, read from &lt;br&gt;redis store&lt;/font&gt;" style="text;html=1;align=center;verticalAlign=middle;resizable=0;points=[];autosize=1;strokeColor=none;fillColor=none;" vertex="1" parent="1">
          <mxGeometry x="350" y="550" width="110" height="50" as="geometry" />
        </mxCell>
        <mxCell id="WabbFey5wYb1l7bOqxb2-16" value="" style="shape=cylinder3;whiteSpace=wrap;html=1;boundedLbl=1;backgroundOutline=1;size=15;direction=south;" vertex="1" parent="1">
          <mxGeometry x="430" y="640" width="80" height="60" as="geometry" />
        </mxCell>
        <mxCell id="WabbFey5wYb1l7bOqxb2-18" value="&lt;font style=&quot;font-size: 14px;&quot;&gt;&lt;b&gt;No&lt;/b&gt; , read from database&lt;/font&gt;" style="text;html=1;align=center;verticalAlign=middle;resizable=0;points=[];autosize=1;strokeColor=none;fillColor=none;rotation=0;" vertex="1" parent="1">
          <mxGeometry x="530" y="520" width="180" height="30" as="geometry" />
        </mxCell>
        <mxCell id="WabbFey5wYb1l7bOqxb2-20" value="" style="shape=cylinder3;whiteSpace=wrap;html=1;boundedLbl=1;backgroundOutline=1;size=15;" vertex="1" parent="1">
          <mxGeometry x="600" y="320" width="60" height="80" as="geometry" />
        </mxCell>
        <mxCell id="WabbFey5wYb1l7bOqxb2-23" value="" style="endArrow=classic;html=1;rounded=0;exitX=1;exitY=0.5;exitDx=0;exitDy=0;entryX=0.5;entryY=1;entryDx=0;entryDy=0;entryPerimeter=0;" edge="1" parent="1" source="WabbFey5wYb1l7bOqxb2-11" target="WabbFey5wYb1l7bOqxb2-20">
          <mxGeometry width="50" height="50" relative="1" as="geometry">
            <mxPoint x="590" y="510" as="sourcePoint" />
            <mxPoint x="640" y="460" as="targetPoint" />
            <Array as="points">
              <mxPoint x="630" y="510" />
            </Array>
          </mxGeometry>
        </mxCell>
        <mxCell id="WabbFey5wYb1l7bOqxb2-25" value="" style="endArrow=classic;html=1;rounded=0;exitX=1;exitY=0.5;exitDx=0;exitDy=0;exitPerimeter=0;entryX=0.5;entryY=0;entryDx=0;entryDy=0;entryPerimeter=0;" edge="1" parent="1" source="WabbFey5wYb1l7bOqxb2-20" target="WabbFey5wYb1l7bOqxb2-16">
          <mxGeometry width="50" height="50" relative="1" as="geometry">
            <mxPoint x="400" y="510" as="sourcePoint" />
            <mxPoint x="450" y="460" as="targetPoint" />
            <Array as="points">
              <mxPoint x="830" y="360" />
              <mxPoint x="830" y="560" />
              <mxPoint x="830" y="670" />
            </Array>
          </mxGeometry>
        </mxCell>
        <mxCell id="WabbFey5wYb1l7bOqxb2-26" value="Redis strore" style="text;html=1;align=center;verticalAlign=middle;resizable=0;points=[];autosize=1;strokeColor=none;fillColor=none;" vertex="1" parent="1">
          <mxGeometry x="425" y="708" width="90" height="30" as="geometry" />
        </mxCell>
        <mxCell id="WabbFey5wYb1l7bOqxb2-27" value="&lt;font style=&quot;font-size: 14px;&quot;&gt;database&lt;/font&gt;" style="text;html=1;align=center;verticalAlign=middle;resizable=0;points=[];autosize=1;strokeColor=none;fillColor=none;" vertex="1" parent="1">
          <mxGeometry x="580" y="290" width="80" height="30" as="geometry" />
        </mxCell>
        <mxCell id="WabbFey5wYb1l7bOqxb2-28" value="&lt;font style=&quot;font-size: 15px;&quot;&gt;store config in redis store&lt;/font&gt;" style="text;html=1;align=center;verticalAlign=middle;resizable=0;points=[];autosize=1;strokeColor=none;fillColor=none;" vertex="1" parent="1">
          <mxGeometry x="545" y="630" width="190" height="30" as="geometry" />
        </mxCell>
      </root>
    </mxGraphModel>
  </diagram>
</mxfile>
